<svg width="393" height="852" viewBox="0 0 393 852" fill="none" xmlns="http://www.w3.org/2000/svg">
<rect width="393" height="852" fill="url(#paint0_linear_135_5)"/>
<path d="M115.28 412.48C115.28 418.027 112.88 422.24 108.08 425.12C110.693 426.08 112.88 427.733 114.64 430.08C116.4 432.427 117.28 435.76 117.28 440.08C117.28 444.347 115.68 447.733 112.48 450.24C109.333 452.747 104.8 454 98.88 454H80C79.0933 454 78.3467 453.707 77.76 453.12C77.1733 452.48 76.88 451.653 76.88 450.64V399.44C76.88 398.853 76.96 398.48 77.12 398.32C77.3333 398.107 77.7333 398 78.32 398H96.56C109.04 398 115.28 402.827 115.28 412.48ZM92.24 410.96V421.44H92.64C97.76 421.44 100.32 419.733 100.32 416.32C100.32 414.453 99.8133 413.093 98.8 412.24C97.84 411.387 96.2133 410.96 93.92 410.96H92.24ZM92.24 430.88V441.28H93.68C95.9733 441.28 97.6533 440.853 98.72 440C99.7867 439.147 100.32 437.787 100.32 435.92C100.32 434.053 99.8133 432.747 98.8 432C97.84 431.253 96.2133 430.88 93.92 430.88H92.24ZM161.1 454.16C156.46 454.16 153.953 453.413 153.58 451.92L150.94 441.6H138.22L135.9 451.52C135.58 453.173 133.02 454 128.22 454C125.66 454 123.767 453.867 122.54 453.6C121.313 453.28 120.7 453.04 120.7 452.88L134.86 398.72C134.86 398.293 138.513 398.08 145.82 398.08C153.127 398.08 156.78 398.293 156.78 398.72L170.62 452.96C170.62 453.333 169.393 453.627 166.94 453.84C164.487 454.053 162.54 454.16 161.1 454.16ZM140.22 431.44H148.62L145.02 414.88H144.54L140.22 431.44ZM198.802 397.28C202.695 397.28 206.109 397.84 209.042 398.96C212.029 400.027 213.522 401.493 213.522 403.36C213.522 405.227 212.802 407.547 211.362 410.32C209.975 413.04 208.802 414.4 207.842 414.4C207.575 414.4 207.255 414.267 206.882 414C206.562 413.68 205.762 413.36 204.482 413.04C203.255 412.667 202.189 412.48 201.282 412.48C198.189 412.48 195.682 413.573 193.762 415.76C191.895 417.947 190.962 421.307 190.962 425.84C190.962 430.32 191.922 433.653 193.842 435.84C195.815 438.027 198.295 439.12 201.282 439.12C202.509 439.12 203.869 438.96 205.362 438.64C206.909 438.267 208.002 437.76 208.642 437.12C208.749 437.013 208.962 436.96 209.282 436.96C209.602 436.96 210.189 437.573 211.042 438.8C211.949 439.973 212.775 441.547 213.522 443.52C214.269 445.44 214.642 446.933 214.642 448C214.642 450.08 213.042 451.733 209.842 452.96C206.642 454.187 202.855 454.8 198.482 454.8C191.442 454.8 185.655 452.32 181.122 447.36C176.589 442.4 174.322 435.413 174.322 426.4C174.322 417.333 176.642 410.213 181.282 405.04C185.975 399.867 191.815 397.28 198.802 397.28ZM264.286 452.64C264.286 453.547 261.592 454 256.206 454C250.819 454 248.126 453.547 248.126 452.64V434.24H236.926V452.64C236.926 453.547 234.232 454 228.846 454C223.459 454 220.766 453.547 220.766 452.64V399.6C220.766 398.48 223.459 397.92 228.846 397.92C234.232 397.92 236.926 398.48 236.926 399.6V418.4H248.126V399.76C248.126 399.013 249.459 398.48 252.126 398.16C253.512 398.053 254.872 398 256.206 398L260.286 398.16C262.952 398.48 264.286 399.013 264.286 399.76V452.64ZM309.85 454.16C305.21 454.16 302.703 453.413 302.33 451.92L299.69 441.6H286.97L284.65 451.52C284.33 453.173 281.77 454 276.97 454C274.41 454 272.517 453.867 271.29 453.6C270.063 453.28 269.45 453.04 269.45 452.88L283.61 398.72C283.61 398.293 287.263 398.08 294.57 398.08C301.877 398.08 305.53 398.293 305.53 398.72L319.37 452.96C319.37 453.333 318.143 453.627 315.69 453.84C313.237 454.053 311.29 454.16 309.85 454.16ZM288.97 431.44H297.37L293.77 414.88H293.29L288.97 431.44Z" fill="white"/>
<defs>
<linearGradient id="paint0_linear_135_5" x1="196.5" y1="0" x2="196.5" y2="852" gradientUnits="userSpaceOnUse">
<stop stop-color="#FF005C"/>
<stop offset="1" stop-color="#4F0F0F"/>
</linearGradient>
</defs>
</svg>
