<svg width="24" height="24" viewBox="0 0 24 24" fill="none" xmlns="http://www.w3.org/2000/svg">
<path fill-rule="evenodd" clip-rule="evenodd" d="M15.707 4.29535C15.8945 4.48288 15.9998 4.73719 15.9998 5.00235C15.9998 5.26751 15.8945 5.52182 15.707 5.70935L9.41403 12.0023L15.707 18.2953C15.8892 18.484 15.99 18.7366 15.9877 18.9988C15.9854 19.2609 15.8803 19.5118 15.6948 19.6972C15.5094 19.8826 15.2586 19.9877 14.9964 19.99C14.7342 19.9923 14.4816 19.8915 14.293 19.7094L7.29303 12.7093C7.10556 12.5218 7.00024 12.2675 7.00024 12.0023C7.00024 11.7372 7.10556 11.4829 7.29303 11.2954L14.293 4.29535C14.4806 4.10788 14.7349 4.00256 15 4.00256C15.2652 4.00256 15.5195 4.10788 15.707 4.29535Z" fill="black"/>
</svg>
